<?xml version="1.0" encoding="UTF-8"?>
<!DOCTYPE svg PUBLIC "-//W3C//DTD SVG 1.1//EN" "http://www.w3.org/Graphics/SVG/1.1/DTD/svg11.dtd">
<!-- Creator: CorelDRAW X5 -->
<svg xmlns="http://www.w3.org/2000/svg" xml:space="preserve" width="700px" height="700px" style="shape-rendering:geometricPrecision; text-rendering:geometricPrecision; image-rendering:optimizeQuality; fill-rule:evenodd; clip-rule:evenodd"
viewBox="0 0 700 700"
 xmlns:xlink="http://www.w3.org/1999/xlink">
 <defs>
  <style type="text/css">
   <![CDATA[
    .fil0 {fill:#1F1A17}
   ]]>
  </style>
 </defs>
 <g id="Layer_x0020_1">
  <metadata id="CorelCorpID_0Corel-Layer"/>
  <polygon class="fil0" points="162.082,636.9 349.5,398.752 545.015,633.09 349.5,505.919 "/>
  <path class="fil0" d="M349.5 398.752c0,0 -0.476427,1.90881 313.156,-132.398 -158.603,43.8227 -236.713,44.7673 -313.871,42.8619 -77.1578,-1.90502 -230.996,-7.60182 -311.49,-37.15 312.206,126.686 312.206,126.686 312.206,126.686z"/>
  <path class="fil0" d="M10.1421 261.201c69.0875,-98.7251 239.374,-218.257 332.495,-248.266 115.603,33.9962 289.122,164.266 347.265,242.953 1.67421,120.484 -66.4628,326.765 -124.459,405.566 -114.677,36.9825 -336.254,32.0043 -426.473,-2.67702 -70.3428,-97.8288 -131.271,-299.758 -128.83,-397.574l0.00241142 -0.00172244zm26.2035 9.43484c66.1207,-82.8622 173.326,-171.36 307.7,-231.46 99.6229,36.2495 221.944,118.102 321.764,226.292 -5.19488,105.884 -42.5939,244.215 -116.461,371.548 -102.741,26.1277 -249.527,35.1488 -392.94,1.92879 -56.3524,-89.7929 -107.742,-221.617 -120.063,-368.31l0.00137795 0.00103346z"/>
  <path class="fil0" d="M330.465 139.112l0 27.4295c-6.55182,-5.73332 -12.3279,-6.91698 -23.0497,-6.91698 -10.7219,0 -28.4113,15.504 -28.4113,32.6778 0,17.1734 14.534,32.201 30.2574,32.4391 15.7235,0.238386 21.6797,-3.28091 25.6709,-8.647 0.0589075,26.0598 0,0 0.0589075,26.0598 -8.57844,3.80763 -12.8701,4.76978 -27.7003,4.53243 -14.8302,-0.237008 -53.7794,-13.4778 -54.733,-52.715 -0.953543,-39.2369 32.4032,-54.8597 53.6058,-55.5759 21.2026,-0.716191 22.1471,0.409252 24.3012,0.716191z"/>
  <path class="fil0" d="M505.933 181.569c13.5804,3.5782 32.6203,13.0024 25.5924,29.2226 -7.02756,16.2202 -22.8888,13.4375 -38.4721,7.05271 3.16206,-12.1525 7.45541,-24.4821 12.8797,-36.2753zm-27.9948 85.2725l-23.8248 -10.614 32.0433 -99.8213c17.0642,4.76703 31.4259,10.1166 41.9442,14.2973 37.2082,14.7878 30.4531,41.5336 25.6344,53.3016 -6.78504,16.5747 -36.2195,25.1848 -65.9998,10.1579 -8.81476,18.366 -9.79724,32.6785 -9.79724,32.6785z"/>
  <path class="fil0" d="M446.588 148.316l-7.17328 26.475c-4.82421,-7.247 -10.0901,-9.8999 -20.4385,-12.7037 -10.3488,-2.80379 -31.4769,7.53465 -35.968,24.1107 -4.49109,16.5757 5.60689,34.8812 20.721,39.2231 15.1141,4.34158 21.7834,2.50236 27.0389,-1.63322 -6.75782,25.1683 0,0 -6.75782,25.1683 -9.27569,1.43169 -13.6696,1.23809 -27.9218,-2.8689 -14.2518,-4.10733 -48.3834,-27.073 -39.0429,-65.1937 9.3408,-38.1211 45.6223,-44.4772 66.2744,-39.6241 20.6521,4.85349 21.2694,6.18701 23.2681,7.04651z"/>
  <path class="fil0" d="M215.317 161.694l6.71855 26.5941c-7.75615,-3.95404 -13.6466,-3.68671 -24.0418,-1.06068 -10.3949,2.62603 -23.7483,21.9904 -19.5421,38.6409 4.20655,16.6505 21.9783,27.6607 37.2812,24.0405 15.3029,-3.62023 20.2156,-8.49129 22.771,-14.6714 6.44021,25.2517 0,0 6.44021,25.2517 -7.38479,5.79257 -11.3102,7.77682 -25.7467,11.1793 -14.4365,3.40217 -55.4426,0.104724 -65.9774,-37.7039 -10.5344,-37.8083 17.9795,-61.1253 38.3608,-67.0129 20.3813,-5.88765 21.5729,-5.02781 23.7363,-5.25758z"/>
 </g>
</svg>
